# xmcd
# 
# Track frame offsets:
#     150
#     9687
#     14734
#     33715
#     53742
#     75415
#     80417
#     99845
#     116827
#     121805
#     141267
#     146267
#     169452
#     190607
#     195660
#     208427
#     213482
# 
# Disc length: 3114
# 
# Revision: 3
# Processed by: cddbd v1.5.2PL0 Copyright (c) Steve Scherf et al.
# Submitted via: fre:ac v1.0.31
# 
DISCID=f20c2811
DTITLE=Jonny Hill - 20 Jahre
DYEAR=1998
DGENRE=Country
TTITLE0=Papa, ich bin Teddybär... für Andrea
TTITLE1=Prolog 1
TTITLE2=Das Konzert
TTITLE3=Dein erster Brief
TTITLE4=Ruf Teddybär 1-4
TTITLE5=Prolog 2
TTITLE6=Der alte Mann
TTITLE7=Rosen für Mama
TTITLE8=Prolog 3
TTITLE9=30 Tonnen Kerosin
TTITLE10=Prolog 4
TTITLE11=Tommy und Strolch
TTITLE12=Papillon
TTITLE13=Prolog 5
TTITLE14=Mein bester Freund
TTITLE15=Prolog 6
TTITLE16=Hallo Teddybär
EXTD=
EXTT0=
EXTT1=
EXTT2=
EXTT3=
EXTT4=
EXTT5=
EXTT6=
EXTT7=
EXTT8=
EXTT9=
EXTT10=
EXTT11=
EXTT12=
EXTT13=
EXTT14=
EXTT15=
EXTT16=
PLAYORDER=
